<?xml version="1.0" encoding="utf-8"?>
<!-- Generator: Adobe Illustrator 25.3.1, SVG Export Plug-In . SVG Version: 6.00 Build 0)  -->
<svg version="1.1" id="book-side" xmlns="http://www.w3.org/2000/svg" xmlns:xlink="http://www.w3.org/1999/xlink" x="0px" y="0px"
	 viewBox="0 0 16.3 2.9" style="enable-background:new 0 0 16.3 2.9;" xml:space="preserve">
<style type="text/css">
	.st0{fill:#7E7979;}
	.st1{fill:#FFFFFF;}
</style>
<path id="Rectangle_4" class="st0" d="M-34.9,0L-34.9,0z"/>
<path id="Rectangle_5" class="st1" d="M-33.5,0L-33.5,0z"/>
<g id="book-side_1_" transform="translate(395.798 0)">
	<path id="Rectangle_4_1_" class="st0" d="M-395.2,0h15.7l0,2.9h-15.7c-0.3,0-0.6-0.3-0.6-0.6l0-1.8C-395.8,0.3-395.5,0-395.2,0
		C-395.2,0-395.2,0-395.2,0z"/>
	<path id="Rectangle_5_1_" class="st1" d="M-395.1,0.4h15.6l0,2.2h-15.6c-0.2,0-0.4-0.2-0.4-0.4l0-1.5
		C-395.5,0.6-395.3,0.4-395.1,0.4C-395.1,0.4-395.1,0.4-395.1,0.4z"/>
</g>
<g id="book-top" transform="translate(402.37)">
	<g>
		<defs>
			<path id="SVGID_1_" d="M-429.1,52.6h131.2c1,0,2,0,2.9,0s1.8,0,2.5,0c0.7,0,1.4,0,1.8,0c0.5,0,0.8,0,0.9,0l35.2-1.7
				c0.3,0,0.2,0-0.1,0s-0.9,0-1.7,0c-0.8,0-1.9,0-3.1,0c-1.2,0-2.6,0-4.1,0H-461c-1.5,0-2.9,0-4.1,0c-1.2,0-2.3,0-3.1,0
				c-0.8,0-1.4,0-1.8,0s-0.4,0-0.2,0l33.1,1.7c0.1,0,0.4,0,0.9,0s1.1,0,1.8,0c0.7,0,1.6,0,2.5,0C-431.1,52.6-430.1,52.6-429.1,52.6z
				"/>
		</defs>
		<clipPath id="SVGID_2_">
			<use xlink:href="#SVGID_1_"  style="overflow:visible;"/>
		</clipPath>
	</g>
</g>
</svg>
